<?xml version="1.0" encoding="utf-8"?>
<!-- Generator: Adobe Illustrator 22.1.0, SVG Export Plug-In . SVG Version: 6.00 Build 0)  -->
<svg version="1.1" id="Layer_1" xmlns="http://www.w3.org/2000/svg" xmlns:xlink="http://www.w3.org/1999/xlink" x="0px" y="0px"
	 viewBox="0 0 839.6 196.8" style="enable-background:new 0 0 839.6 196.8;" xml:space="preserve">
<style type="text/css">
	.st0{fill:#FBA244;}
	.st1{fill:url(#SVGID_1_);}
	.st2{fill:url(#SVGID_2_);}
	.st3{fill:url(#SVGID_3_);}
	.st4{fill:url(#SVGID_4_);}
	.st5{fill:url(#SVGID_5_);}
	.st6{fill:#606060;}
</style>
<title>Logggoooo</title>
<g>
	<path class="st0" d="M112.9,100.7c0-5.8,0-11.6-0.1-17.5c-0.2-8.6-3.7-16.1-9.1-22.7c-4.4-5.4-10.1-9.5-16.5-12.1
		c-3.8-1.6-7.8-2.6-11.9-2.8c-10-0.4-20-0.1-30-0.1c-8.4,0-16.6-2.4-23.7-7c-1.8-1.1-3.6-2.4-5.2-3.8C7.6,27.4,2.6,17.6,0.6,6.3
		C0.3,4.2,0.1,2.1,0,0c10.6,9,20.6,21.2,54.1,22.6c17.3,0.7,37.4,4.3,49,18.9c5.7,7.1,9.5,15,9.6,24.1
		C113,77.2,112.9,89,112.9,100.7z"/>
	
		<linearGradient id="SVGID_1_" gradientUnits="userSpaceOnUse" x1="315.8224" y1="300.4252" x2="475.1425" y2="528.8353" gradientTransform="matrix(1 0 0 1 -277.2 -334.8)">
		<stop  offset="0.16" style="stop-color:#FCCF38"/>
		<stop  offset="0.55" style="stop-color:#F9903A"/>
		<stop  offset="0.86" style="stop-color:#F64F3C"/>
		<stop  offset="1" style="stop-color:#F5363D"/>
	</linearGradient>
	<path class="st1" d="M158.4,97.1v99.7c-0.6,0-1.5-0.1-2.4-0.1c-1.8-0.2-3.6-0.4-3.9-0.4s-0.4-0.1-0.6-0.1c-3-0.6-5.9-1.3-8.7-2.3
		c-1.5-0.6-3-1.2-4.5-1.9c-5.6-2.7-10.6-6.6-14.5-11.4c-4-4.8-7.1-10.3-9-16.2c-1.2-4.1-1.9-8.4-1.9-12.7c0-4.2,0-8.4,0.1-12.6
		v-38.3c0.1-27.8,1.1-56.2-28-69.7c-18.5-8.6-38.6-3.9-57-10.5c-6.1-2.2-11.8-5.6-16.7-9.8C9.2,9,0.1,0,0.1,0H97
		c2.3,0,4.6,0.1,6.9,0.5l0,0c30.8,5,53.7,31.2,54.5,62.4v9.6l0,0L158.4,97.1L158.4,97.1z"/>
	
		<linearGradient id="SVGID_2_" gradientUnits="userSpaceOnUse" x1="295.7055" y1="405.0626" x2="374.8555" y2="445.6426" gradientTransform="matrix(1 0 0 1 -277.2 -334.8)">
		<stop  offset="0" style="stop-color:#F8C512"/>
		<stop  offset="1" style="stop-color:#F73A40"/>
	</linearGradient>
	<path class="st2" d="M92.4,121.3c-0.1-0.1-0.1-0.1-0.2-0.2l-0.2-0.4c-6.8-10.5-17.6-17.6-28.6-23.2c-5.3-2.7-10.8-4.8-16.2-7
		c-2.6-1.1-5.9-0.9-8.6-2L15,77.1h26.1c3.6,0,7.1,0.1,9.9,0.3c8,0.7,15.6,3.6,22.1,8.3C81.7,92,87.5,99.8,90,110.2
		c0.5,2.1,1,4.3,1.4,6.4L92.4,121.3z"/>
	
		<linearGradient id="SVGID_3_" gradientUnits="userSpaceOnUse" x1="292.2" y1="434" x2="369.6" y2="434" gradientTransform="matrix(1 0 0 1 -277.2 -334.8)">
		<stop  offset="0" style="stop-color:#F5DB30"/>
		<stop  offset="1" style="stop-color:#FD5B56"/>
	</linearGradient>
	<path class="st3" d="M92.4,121.3H66.3c-3.6,0-7.1-0.1-9.9-0.3c-8-0.7-15.6-3.6-22.1-8.3c-8.6-6.3-14.4-14.1-16.9-24.5
		c-0.4-1.6-0.9-4.1-1.4-6.3c-0.4-2-1-4.8-1-4.8l24.5,9.8c7.3,2.9,14.7,5.7,21.8,9.1c2.2,1.1,4.4,2.3,6.6,3.4
		c6.1,3.3,11.7,7.4,16.7,12.2C87.5,114.5,90.2,117.8,92.4,121.3z"/>
	
		<linearGradient id="SVGID_4_" gradientUnits="userSpaceOnUse" x1="295.7055" y1="479.5626" x2="374.8556" y2="520.1426" gradientTransform="matrix(1 0 0 1 -277.2 -334.8)">
		<stop  offset="0" style="stop-color:#F8C512"/>
		<stop  offset="1" style="stop-color:#F73A40"/>
	</linearGradient>
	<path class="st4" d="M92.4,195.8c-0.1-0.1-0.1-0.1-0.2-0.2l-0.2-0.4c-6.8-10.5-17.6-17.6-28.6-23.2c-5.3-2.7-10.8-4.8-16.2-7
		c-2.6-1.1-5.9-0.9-8.6-2L15,151.6h26.1c3.6,0,7.1,0.1,9.9,0.3c8,0.7,15.6,3.6,22.1,8.3c8.6,6.3,14.4,14.1,16.9,24.5
		c0.5,2.1,1,4.3,1.4,6.4L92.4,195.8z"/>
	
		<linearGradient id="SVGID_5_" gradientUnits="userSpaceOnUse" x1="292.2" y1="508.5" x2="369.6" y2="508.5" gradientTransform="matrix(1 0 0 1 -277.2 -334.8)">
		<stop  offset="0" style="stop-color:#F5DB30"/>
		<stop  offset="1" style="stop-color:#FD5B56"/>
	</linearGradient>
	<path class="st5" d="M92.4,195.8H66.3c-3.6,0-7.1-0.1-9.9-0.3c-8-0.7-15.6-3.6-22.1-8.3c-8.6-6.3-14.4-14.1-16.9-24.5
		c-0.4-1.6-0.9-4.1-1.4-6.3c-0.4-2-1-4.8-1-4.8l24.5,9.8c7.3,2.9,14.7,5.7,21.8,9.1c2.2,1.1,4.4,2.3,6.6,3.4
		c6.1,3.3,11.7,7.4,16.7,12.2C87.5,189,90.2,192.3,92.4,195.8z"/>
	<path d="M46.8,50.3"/>
</g>
<g>
	<path class="st6" d="M299.5,92v18.8h-25.7V92h-9.1v51.8h9.1v-24.3h25.7v24.3h9.1V92H299.5z"/>
	<path class="st6" d="M370,117.8c0-3.5-0.7-6.9-2.1-10.1c-1.3-3.2-3.2-6-5.6-8.5c-2.4-2.5-5.3-4.5-8.4-5.9
		c-3.2-1.4-6.6-2.1-10.1-2.1c-4.6,0-9.2,1.3-13.1,3.7c-4,2.4-7.2,5.8-9.5,9.9c-2.3,4-3.5,8.4-3.5,13c0,4.7,1.2,9.3,3.5,13.4
		c2.2,4.1,5.5,7.5,9.5,9.9c3.9,2.5,8.5,3.7,13.1,3.7c4.3,0.1,8.5-1,12.2-3.1c3.3-1.8,6.2-4.3,8.4-7.3l-6.8-6.4
		c-3.6,5.2-8.2,7.9-13.9,7.9c-3.8,0-7.5-1.4-10.3-3.9c-3-2.6-5-6.2-5.8-10.1h42C369.9,120.6,370,119.2,370,117.8z M327.7,113.8
		c0.8-3.9,2.8-7.4,5.8-10c2.8-2.5,6.5-3.9,10.3-3.9c2.5,0,5.1,0.6,7.3,1.8c2.3,1.2,4.3,2.9,5.8,4.9c1.6,2.1,2.6,4.6,3.1,7.2H327.7z"
		/>
	<path class="st6" d="M413,101.7c-2.5-1.6-5.4-2.4-8.3-2.4c-2.5,0-5.1,0.6-7.3,1.8c2.3-1,4.7-1.5,7.2-1.5c3,0,6,0.7,8.6,2.2l0.9,0.6
		C413.7,102.2,413.3,102,413,101.7z"/>
	<path class="st6" d="M452.5,92c-3-0.1-6.1,0.5-8.8,1.8c-2.2,1.2-3.8,3.1-4.6,5.4c-1,3.2-1.5,6.5-1.4,9.8v34.8h9.4v-36.2
		c0-2.4,0.5-4.2,1.6-5.2s2.9-1.6,5.5-1.7h18V92L452.5,92z"/>
	<path class="st6" d="M528,107.7c-1.3-3.2-3.2-6.1-5.6-8.6c-2.4-2.5-5.2-4.5-8.4-5.9c-3.2-1.4-6.6-2.1-10.1-2.1
		c-4.6,0-9.2,1.2-13.1,3.7c-4,2.4-7.2,5.8-9.5,9.9c-2.3,4-3.5,8.5-3.5,13.1c0,4.7,1.2,9.2,3.5,13.3c2.2,4.1,5.5,7.5,9.5,9.9
		c8.1,4.9,18.2,4.9,26.3,0C528.5,134.2,533.2,120,528,107.7L528,107.7z M518.2,126.9c-1.4,2.7-3.5,4.9-6,6.5
		c-2.5,1.6-5.4,2.4-8.3,2.4c-4.4,0.1-8.7-1.8-11.6-5.2c-3.2-3.5-4.8-8.1-4.7-12.8c-0.1-4.7,1.6-9.3,4.7-12.8
		c2.9-3.3,7.2-5.2,11.6-5.2c2.9,0,5.8,0.8,8.3,2.4c2.5,1.6,4.6,3.8,6,6.5c1.5,2.8,2.3,5.9,2.2,9.1
		C520.4,121,519.7,124.1,518.2,126.9z"/>
	<path class="st6" d="M577.1,126.4c-1.3,2.7-3.3,5.1-5.8,6.8c-2.5,1.8-5.6,2.8-8.7,2.7c-2.9,0-5.8-0.8-8.3-2.4
		c-2.5-1.6-4.6-3.9-6-6.5c-2.9-5.7-2.9-12.4,0-18.1c1.4-2.7,3.4-4.9,6-6.5c2.5-1.6,5.4-2.4,8.3-2.4c2,0,4,0.4,5.9,1.1
		c1.9,0.7,3.6,1.8,5,3.2c1.5,1.4,2.8,3.1,3.7,5l6.8-6.6c-5.8-7.6-12.9-11.4-21.4-11.4c-4.6,0-9.2,1.2-13.1,3.7
		c-4,2.4-7.2,5.8-9.5,9.9c-2.3,4-3.5,8.4-3.5,13c0,4.7,1.2,9.2,3.5,13.3c2.2,4.1,5.5,7.5,9.5,9.9c8,4.9,18,4.9,26,0.2
		c3.6-2.1,6.7-5.1,9-8.6L577.1,126.4z"/>
	<path class="st6" d="M659.1,97.2c-3.9-4.1-9.3-6.3-14.9-6.1c-6.3-0.1-12.2,2.9-15.8,8c-3.6-5.2-9.5-8.2-15.8-8
		c-6.1,0-11.1,2-14.8,6s-5.6,9.6-5.6,16.7v29.9h9.1v-31.5c-0.1-3.2,1-6.4,3.2-8.8c2.1-2.2,5.1-3.4,8.2-3.3c3.1-0.1,6,1.1,8.2,3.3
		c2.2,2.4,3.3,5.6,3.2,8.8v31.6h9.1v-31.6c0-3.7,1-6.6,3.2-8.8c4.5-4.4,11.8-4.4,16.3,0c2.2,2.4,3.3,5.6,3.2,8.8v31.6h9.1v-29.9
		C664.8,106.8,662.9,101.2,659.1,97.2z"/>
	<path class="st6" d="M784.8,107.7c-1.3-3.2-3.3-6.1-5.7-8.6c-2.4-2.5-5.2-4.5-8.4-5.9c-3.2-1.4-6.6-2.1-10.1-2.1
		c-4.6,0-9.2,1.2-13.1,3.7c-4,2.4-7.2,5.8-9.5,9.9c-2.3,4-3.5,8.5-3.5,13.1c0,4.7,1.2,9.2,3.5,13.3c2.2,4.1,5.5,7.5,9.5,9.9
		c8.1,4.9,18.2,4.9,26.3,0C785.2,134.1,789.8,120,784.8,107.7L784.8,107.7z M774.9,126.9c-1.4,2.7-3.5,4.9-6,6.5
		c-2.5,1.6-5.4,2.4-8.3,2.4c-4.5,0.1-8.7-1.8-11.6-5.2c-6.4-7.3-6.4-18.3,0-25.6c2.9-3.3,7.2-5.2,11.6-5.2c2.9,0,5.8,0.8,8.3,2.4
		c2.6,1.6,4.6,3.8,6,6.5c1.5,2.8,2.3,5.9,2.2,9.1C777.1,121,776.4,124.1,774.9,126.9z"/>
	<path class="st6" d="M808.2,79.9v5.7h19.2v-5.7H808.2z M830.4,91.8v30.5c0,3.5-1.2,6.8-3.5,9.4c-2.3,2.7-5.8,4.1-9.3,4
		c-3.5,0.1-6.8-1.3-9.2-3.9c-2.4-2.7-3.7-6.3-3.6-9.9v-30h-9.1v29.8c0,7.1,1.9,12.8,5.7,16.8s9.2,6.1,16.2,6.1
		c5.8,0,10.1-1.7,12.9-5v4.1h9.1V91.8H830.4z"/>
	<path class="st6" d="M244.2,74.6c-4.4-4.3-11.1-6.5-20-6.5h-10.8v9.4h12.4c4.8,0,8.6,1.3,11.1,4c2.5,2.7,3.9,6.4,3.9,11.3v10.1
		h-25.4v9.3h25.4v22.1h-27.5v9.3h37.5V94.3C250.8,85.5,248.6,78.9,244.2,74.6z"/>
	<path class="st6" d="M419.1,108.2c-1.2-2.3-2.8-4.2-4.9-5.7c2,1.5,3.6,3.4,4.8,5.6c0.7,1.3,1.2,2.7,1.6,4.1
		C420.3,110.8,419.8,109.5,419.1,108.2z M404.7,90.7c-3.6,0-7.2,0.8-10.5,2.3c0.3-0.2,0.7-0.3,1.1-0.4c3-1.1,6.2-1.7,9.4-1.7
		c2.6,0,5.2,0.3,7.7,1C409.9,91.1,407.3,90.7,404.7,90.7L404.7,90.7z M378.6,117.4c0,1,0.1,2,0.2,3c0-2.7,0.1-5.5,0.5-8.2
		c0.1-0.9,0.3-1.8,0.5-2.7C379,112.1,378.6,114.7,378.6,117.4z"/>
	<path class="st6" d="M413,101.7c-2.5-1.6-5.4-2.4-8.3-2.4c-2.5,0-5.1,0.6-7.3,1.8c2.3-1,4.7-1.5,7.2-1.5c3,0,6,0.7,8.6,2.2l0.9,0.6
		C413.7,102.2,413.3,102,413,101.7z M419.1,108.2c-1.2-2.3-2.8-4.2-4.9-5.7c2,1.5,3.6,3.4,4.8,5.6c0.7,1.3,1.2,2.7,1.6,4.1
		C420.3,110.8,419.8,109.5,419.1,108.2z M413,101.7c-2.5-1.6-5.4-2.4-8.3-2.4c-2.5,0-5.1,0.6-7.3,1.8c2.3-1,4.7-1.5,7.2-1.5
		c3,0,6,0.7,8.6,2.2l0.9,0.6C413.7,102.2,413.3,102,413,101.7z M419.1,108.2c-1.2-2.3-2.8-4.2-4.9-5.7c2,1.5,3.6,3.4,4.8,5.6
		c0.7,1.3,1.2,2.7,1.6,4.1C420.3,110.8,419.8,109.5,419.1,108.2z"/>
	<path class="st6" d="M429.3,108.2c-0.1-0.3-0.2-0.7-0.4-1c-1.3-3.2-3.2-6.1-5.6-8.6c-2.4-2.5-5.2-4.5-8.4-5.9
		c-0.8-0.3-1.6-0.6-2.4-0.9h-0.1c-2.5-0.7-5.1-1-7.7-1c-3.2,0-6.4,0.6-9.4,1.7c-0.4,0.1-0.8,0.3-1.1,0.4c-0.2,0-0.3,0.1-0.4,0.2
		c-5.3,2.4-9.6,6.6-12.2,11.9c-0.8,1.5-1.4,3-1.8,4.6c-0.2,0.9-0.4,1.8-0.5,2.7c-0.4,2.7-0.5,5.5-0.5,8.2v46.9h9.2v-29.5
		c1.1,1,2.4,1.9,3.7,2.7c1,0.6,2,1.1,3,1.6c7.6,3.3,16.3,2.7,23.3-1.6c4-2.4,7.3-5.8,9.5-9.8c0.9-1.5,1.6-3.1,2.1-4.7
		c0.1-0.1,0.1-0.3,0.1-0.4c0.8-2.7,1.2-5.4,1.2-8.2C430.9,114.3,430.4,111.2,429.3,108.2z M419,126.4c-1.4,2.7-3.5,4.9-6,6.5
		c-6.4,4.1-14.8,2.9-19.9-2.8c-6.4-7.3-6.4-18.3,0-25.6c1.2-1.4,2.7-2.5,4.3-3.4c4.9-2.6,10.9-2.4,15.6,0.6c0.4,0.2,0.7,0.5,1.1,0.7
		l0.1,0.1c2.1,1.5,3.8,3.4,4.9,5.7c0.7,1.3,1.2,2.7,1.5,4.1c0.1,0.2,0.1,0.4,0.2,0.6s0.1,0.5,0.1,0.7c0.1,0.4,0.1,0.8,0.2,1.2
		s0.1,0.8,0.1,1.2v1.2C421.3,120.4,420.6,123.6,419,126.4z"/>
	<path class="st6" d="M726.5,108.2c-0.1-0.3-0.2-0.7-0.4-1c-1.3-3.2-3.2-6.1-5.6-8.6c-2.4-2.5-5.2-4.5-8.4-5.9
		c-0.8-0.3-1.6-0.6-2.4-0.9h-0.1c-2.5-0.7-5.1-1-7.7-1c-3.2,0-6.4,0.6-9.4,1.7c-0.4,0.1-0.8,0.3-1.1,0.4c-0.2,0-0.3,0.1-0.4,0.2
		c-5.3,2.4-9.6,6.6-12.2,11.9c-0.8,1.5-1.4,3-1.8,4.6c-0.2,0.9-0.4,1.8-0.5,2.7c-0.4,2.7-0.5,5.5-0.5,8.2v46.9h9.2v-29.5
		c1.1,1,2.4,1.9,3.7,2.7c1,0.6,2,1.1,3,1.6c7.6,3.3,16.3,2.7,23.3-1.6c4-2.4,7.3-5.8,9.5-9.8c0.9-1.5,1.6-3.1,2.1-4.7
		c0.1-0.1,0.1-0.3,0.1-0.4c0.8-2.7,1.2-5.4,1.2-8.2C728.1,114.3,727.6,111.2,726.5,108.2z M716.3,126.4c-1.4,2.7-3.5,4.9-6,6.5
		c-6.4,4.1-14.8,2.9-19.9-2.8c-6.4-7.3-6.4-18.3,0-25.6c1.2-1.4,2.7-2.5,4.3-3.4c4.9-2.6,10.9-2.4,15.6,0.6c0.4,0.2,0.7,0.5,1.1,0.7
		c0.1,0,0.1,0.1,0.2,0.1c2.1,1.5,3.8,3.4,4.9,5.7c0.7,1.3,1.2,2.7,1.5,4.1c0.1,0.2,0.1,0.4,0.2,0.6c0.1,0.2,0.1,0.5,0.1,0.7
		c0.1,0.4,0.1,0.8,0.2,1.2s0.1,0.8,0.1,1.2v1.2C718.6,120.4,717.8,123.6,716.3,126.4z"/>
</g>
</svg>
